<svg width="20" height="20" viewBox="0 0 20 20" fill="none" xmlns="http://www.w3.org/2000/svg">
<path d="M16.7679 14.9141C16.3995 14.0414 15.8648 13.2486 15.1937 12.5801C14.5247 11.9096 13.7321 11.375 12.8597 11.0059C12.8519 11.002 12.8441 11 12.8363 10.9961C14.0531 10.1172 14.8441 8.68555 14.8441 7.07031C14.8441 4.39453 12.6762 2.22656 10.0004 2.22656C7.32459 2.22656 5.15662 4.39453 5.15662 7.07031C5.15662 8.68555 5.94763 10.1172 7.16443 10.998C7.15662 11.002 7.14881 11.0039 7.14099 11.0078C6.26599 11.377 5.48084 11.9062 4.80701 12.582C4.13652 13.2511 3.60194 14.0437 3.23279 14.916C2.87014 15.77 2.67455 16.6856 2.65662 17.6133C2.6561 17.6341 2.65975 17.6549 2.66737 17.6743C2.67499 17.6937 2.68642 17.7114 2.70098 17.7263C2.71554 17.7412 2.73294 17.7531 2.75216 17.7612C2.77137 17.7693 2.79202 17.7734 2.81287 17.7734H3.98474C4.07068 17.7734 4.13904 17.7051 4.14099 17.6211C4.18006 16.1133 4.78553 14.7012 5.85584 13.6309C6.96326 12.5234 8.43396 11.9141 10.0004 11.9141C11.5668 11.9141 13.0375 12.5234 14.1449 13.6309C15.2152 14.7012 15.8207 16.1133 15.8597 17.6211C15.8617 17.707 15.9301 17.7734 16.016 17.7734H17.1879C17.2087 17.7734 17.2294 17.7693 17.2486 17.7612C17.2678 17.7531 17.2852 17.7412 17.2998 17.7263C17.3143 17.7114 17.3257 17.6937 17.3334 17.6743C17.341 17.6549 17.3446 17.6341 17.3441 17.6133C17.3246 16.6797 17.1312 15.7715 16.7679 14.9141ZM10.0004 10.4297C9.10388 10.4297 8.26013 10.0801 7.62537 9.44531C6.9906 8.81055 6.64099 7.9668 6.64099 7.07031C6.64099 6.17383 6.9906 5.33008 7.62537 4.69531C8.26013 4.06055 9.10388 3.71094 10.0004 3.71094C10.8969 3.71094 11.7406 4.06055 12.3754 4.69531C13.0101 5.33008 13.3597 6.17383 13.3597 7.07031C13.3597 7.9668 13.0101 8.81055 12.3754 9.44531C11.7406 10.0801 10.8969 10.4297 10.0004 10.4297Z" fill="white"/>
</svg>
